<svg width="149" height="59" viewBox="0 0 149 59" fill="none" xmlns="http://www.w3.org/2000/svg">
<path d="M54.7637 25.2669C47.9511 25.2669 41.2243 25.5044 34.4892 26.4593C31.2773 26.9148 22.6492 26.648 20.7762 29.6091C26.3357 32.1281 32.539 32.1143 38.0422 35.4776C40.4125 36.9261 43.6454 38.9617 43.8104 42.4217C44.0558 47.5644 40.0782 45.5871 37.2241 44.8201C31.0879 43.1709 24.6603 42.3806 18.4237 41.2674C13.6487 40.4152 2.26057 41.1141 0.285728 34.6255C-1.69723 28.1106 7.15706 22.8245 10.9429 19.691C17.0791 14.6126 23.1667 9.43437 29.3407 4.42228C31.0422 3.04101 34.2859 -0.296085 36.6818 0.67057C40.0277 2.02038 38.4872 5.50086 37.0153 7.87395C36.0649 9.40639 23.2891 23.2465 23.2622 23.233C24.2928 23.7527 30.4706 21.5866 31.4815 21.3697C35.6092 20.4838 39.9106 19.9894 44.1771 19.626C55.3317 18.6759 66.9995 17.5137 78.1228 19.627C83.3207 20.6143 86.9577 23.2823 91.3806 26.0934C95.5804 28.7625 99.7351 26.242 104.507 25.6155C114.367 24.3208 124.488 26.0793 133.687 30.1522C139.968 32.9335 154.015 41.5792 147.159 51.378C145.37 53.9361 142.314 55.4162 142.836 51.6731C143.191 49.1353 144.901 48.9462 144.218 45.8848C143.726 43.6801 142.058 42.3397 140.496 41.1646C132.732 35.3261 121.067 32.5523 111.95 32.4043C108.475 32.3478 101.522 32.9169 98.5007 35.0486C95.8136 36.9446 97.1894 40.2256 96.3068 44.1248C94.0186 54.2338 82.7389 62.3621 73.539 57.1162C60.2102 49.5161 78.2129 34.775 85.2125 31.524C79.283 23.9223 62.6247 25.2669 54.7637 25.2669ZM80.4332 50.7169C87.4669 50.3897 90.011 45.7308 89.8114 38.5247C87.4606 39.7669 69.5731 50.7169 80.4332 50.7169C81.6399 50.6608 79.4771 50.7169 80.4332 50.7169Z" fill="#2E5077"/>
</svg>
