<svg width="1440" height="3723" viewBox="0 0 1440 3723" fill="none" xmlns="http://www.w3.org/2000/svg">
<g opacity="0.3" clip-path="url(#clip0_4_421)">
<g opacity="0.12">
<path fill-rule="evenodd" clip-rule="evenodd" d="M467.837 300.435C467.729 58.6616 424.655 -213.219 406.255 -353.389C369.874 -630.628 332.036 -886.643 294.549 -1146.75C257.061 -1406.85 219.473 -1666.25 183.726 -1951.81C160.516 -2137.18 133.244 -2345.95 117.502 -2610.64C83.9689 -3174.71 189.697 -3090.94 217.084 -3103.28C286.756 -3134.8 366.669 -3120.42 431.975 -3414.15C470.96 -3589.51 486.506 -3883.6 478.133 -4312.22C475.434 -4451.61 467.445 -4612.02 474.213 -4747.82C481.439 -4892.85 498.064 -4976.55 511.862 -5032.67C562.189 -5237.15 620.053 -5260.84 673.302 -5286.5C730.72 -5314.71 788.679 -5306.46 845.693 -5308.64C869.868 -5309.56 895.116 -5400.3 918.137 -5474.05C948.317 -5570.72 978.14 -5679.3 1008.07 -5784.29C1073.92 -6014.71 1141.77 -6257.4 1211.43 -6315.92C1255.06 -6352.59 1302.74 -6303.02 1336.63 -5984.11C1353.65 -5823.99 1362.55 -5585.95 1372.39 -5374.5C1384.3 -5119.04 1395.74 -4861.13 1408.41 -4609.69C1449.26 -3799.91 1507.56 -3008.59 1602.21 -2968.82C1616.52 -2962.83 1630.59 -2982.36 1644.84 -2986.03C1653.91 -2988.28 1661.99 -2965.37 1665.36 -2866.16C1673.84 -2617.34 1647.18 -2224.54 1636.25 -2027.11C1612.32 -1594.97 1585.33 -1182.21 1560.05 -758.741C1543.32 -478.682 1514.37 -95.9633 1514.07 244.31C1513.8 547.495 1552.39 766.635 1573.4 915.972C1593.09 1055.79 1628.76 1251.45 1630.92 1535.88C1631.97 1673.79 1623.27 1788.09 1614.18 1876.79C1598.25 2031.91 1579.89 2141.34 1565.56 2318.31C1542.06 2608.66 1522.43 3008.16 1525.62 3399.41C1527.83 3670.52 1542.64 3848.06 1561.47 4017.77C1569.38 4089.13 1575.81 4139.61 1576.22 4255.46C1576.9 4439.41 1570 4634.09 1564.32 4804.64C1544 5415.04 1515.13 6005.26 1483.03 6556.35C1466.98 6831.76 1449.65 7106.32 1428.37 7341.25C1414.44 7495.52 1395.65 7679.13 1374.4 7678.92C1349.79 7678.92 1323.75 7586.13 1299.83 7516.75C1255.16 7387.08 1211.03 7237.18 1167.07 7083.4C1065.41 6727.62 964.708 6343.02 864.963 5929.6C794.704 5637.91 722.954 5345.8 656.9 4958C644.017 4881.85 631.858 4793.05 620.586 4692.82C608.542 4587.55 593.597 4540.45 578.443 4505.34C484.387 4287.4 381.344 4454.71 286.897 4559.63C262.924 4586.21 238.952 4612.93 214.911 4631.55C194.245 4647.55 169.503 4693.45 149.417 4624.5C109.838 4488.77 144.437 3988.51 159.065 3784.67C210.566 3066.97 277.013 2459.75 338.601 1839.84C367.884 1544.62 397.389 1250.18 425.08 938.252C439.498 776.083 467.931 512.382 467.837 300.435Z" stroke="#3A3A3A"/>
<path fill-rule="evenodd" clip-rule="evenodd" d="M485.584 259.674C469.799 3.84186 442.103 -185.249 419.113 -363.203C386.029 -619.388 351.905 -861.336 318.295 -1110.26C286.514 -1345.65 254.666 -1583.73 225.235 -1851.05C207.288 -2014.06 184.771 -2209 176.271 -2450.1C157.831 -2972.69 257.029 -2893.4 281.518 -2907.08C342.399 -2940.9 411.423 -2948.66 467.746 -3223.8C502.916 -3395.62 517.365 -3680.56 509.864 -4076.15C507.271 -4213.02 502.599 -4329.87 508.514 -4466.03C515.353 -4623.62 531.085 -4721.86 545.507 -4791.21C590.683 -5008.49 644.083 -5054.65 693.054 -5093.06C743.645 -5132.74 796.357 -5160.72 845.321 -5131.69C864.901 -5120.13 887.439 -5185.74 906.816 -5236.06C936.632 -5313.59 966.145 -5403.02 995.812 -5486.19C1056.11 -5655.33 1117.97 -5818.27 1180.69 -5836.81C1225.97 -5850.2 1273.19 -5777.61 1310.87 -5497.04C1349.05 -5212.52 1365.99 -4771.48 1387.16 -4352.21C1423.73 -3627.35 1473.12 -2746.04 1557.72 -2592.89C1570.55 -2569.63 1582.88 -2582.25 1595.69 -2576.54C1602.28 -2573.65 1609.78 -2564.49 1613.12 -2496.62C1621.8 -2320.42 1598.03 -1998.27 1590.03 -1863.31C1567.92 -1490.34 1543.07 -1135.63 1519.9 -769.856C1501.5 -479.42 1478.18 -156.705 1471.07 187.576C1462.43 605.364 1518.85 902.637 1538.7 1196.81C1573.1 1706.92 1507.92 1997.57 1475.79 2240.79C1438.89 2520.02 1408.44 3029.43 1441.51 3461.45C1454.17 3626.65 1469.74 3725.1 1475.39 3940.69C1484.22 4277.86 1477.54 4663.16 1470.37 4996.44C1459.57 5497.46 1442.47 5993.06 1419.23 6445.87C1402.58 6770.07 1374.96 7278.42 1334.51 7240.29C1307.28 7214.85 1279.6 7121.89 1253.08 7039.72C1213.38 6916.73 1174.18 6776.55 1135.19 6630.95C1045.18 6295.76 956.165 5926.18 868.898 5519.66C809.354 5242.2 643.26 4108.29 630.762 4067.84C593.499 3947.32 551.131 3968.53 512.713 3987.21C461.609 4012.02 410.761 4076.29 359.953 4135.85C335.769 4164.04 311.462 4198.5 287.149 4212.38C269.844 4222.25 247.117 4230.71 231.959 4125.63C202.373 3920.61 235.335 3451.51 248.967 3253.05C290.727 2644.62 343.553 2117.73 393.085 1579.01C417.391 1314.5 442.069 1050.43 464.134 764.713C473.033 649.342 495.341 417.684 485.584 259.674Z" stroke="#3A3A3A"/>
<path fill-rule="evenodd" clip-rule="evenodd" d="M507.423 128.473C464.313 -383.476 404.811 -764.229 353.458 -1191.79C327.683 -1406.46 301.746 -1626.97 279.516 -1882.66C267.952 -2015.62 253.512 -2183.76 251.284 -2369.09C245.33 -2864.9 334.737 -2797.85 361.498 -2816.68C413.236 -2853.19 471.684 -2880.9 518.623 -3133.91C547.3 -3288.58 561.423 -3542.44 556.063 -3876.1C553.687 -4024.15 549.987 -4149.91 556.063 -4295.28C562.22 -4442.55 575.046 -4546.46 588.035 -4624.36C625.36 -4848.4 671.745 -4920.02 713.769 -4973.39C763.067 -5035.55 812.736 -5059.81 862.375 -5046C905.85 -5034.09 949.116 -5168.1 991.565 -5256.43C1047.8 -5373.39 1105.05 -5475.54 1162.6 -5460.1C1208.04 -5447.83 1253.85 -5351.46 1292.7 -5095.35C1332.18 -4834.51 1355.91 -4444.1 1377.31 -4022.81C1409.66 -3385.94 1449.98 -2532.5 1520.95 -2290.63C1531.27 -2255.38 1540.89 -2251.5 1551.54 -2245.37C1556.71 -2242.41 1563.39 -2241.49 1565.95 -2185.16C1572.12 -2049.53 1549.31 -1786.58 1542.94 -1694.93C1522.62 -1402.37 1500.6 -1122.99 1479.77 -834.303C1460.33 -564.793 1439.15 -283.934 1427.07 31.8926C1407.85 534.888 1469.3 829.001 1467.58 1308.31C1466.51 1605.88 1439.23 1819.27 1417.62 1966.89C1391.02 2148.42 1352.73 2267.77 1339.41 2599.04C1329.5 2845.78 1345.06 2989.38 1357.04 3176.62C1377.35 3493.85 1378.73 3923.89 1376.62 4291.1C1373.77 4787.33 1362.64 5290.89 1343.69 5747.01C1335.1 5953.77 1324.58 6168.86 1309.1 6329.45C1294.59 6479.96 1280.86 6518.52 1261.47 6487.72C1202.12 6393.25 1142.19 6129.94 1085.27 5894.77C1013.76 5599.24 943.236 5272.98 874.816 4905.91C828.161 4655.57 780.454 4390.72 739.503 4044.86C728.83 3954.69 717.9 3856.7 710.096 3737.77C704.196 3648.38 701.692 3574.57 691.748 3523.53C662.274 3372.32 621.276 3411.87 589.696 3427.59C539.199 3452.61 488.946 3519.23 438.761 3579.23C409.476 3614.47 354.308 3725.37 330.923 3459.38C310.738 3229.7 335.095 2838.09 347.537 2635.77C379.009 2124.1 419.494 1675.03 457.056 1212.64C474.27 1000.73 492.16 787.196 506.377 551.596C510.009 491.532 515.828 411.941 516.827 338.977C517.948 255.368 512.716 191.568 507.423 128.473Z" stroke="#3A3A3A"/>
<path fill-rule="evenodd" clip-rule="evenodd" d="M511.13 247.648C471.294 -205.008 423.302 -576.883 380.536 -1000.47C361.36 -1190.4 341.996 -1389.63 327.385 -1621.32C319.526 -1745.92 311.181 -1902.75 313.348 -2057.61C319.567 -2502.08 393.101 -2461.94 422.809 -2487.97C466.952 -2526.21 517.665 -2564.73 556.698 -2804.4C582.267 -2961.37 591.854 -3193.2 587.081 -3492.2C581.956 -3812.92 593.414 -4045.74 619.49 -4224.66C652.182 -4448.8 693.449 -4540.17 731.408 -4605.07C777.141 -4682.9 823.453 -4717.4 869.78 -4708.15C914.835 -4699.12 958.485 -4777.99 1003.24 -4829.28C1062.59 -4897.23 1123.83 -4930.74 1182.5 -4791.47C1233.59 -4670.19 1279.73 -4402.94 1314.32 -3989.66C1350.45 -3558.31 1368.33 -3014.85 1397.67 -2537.64C1415.97 -2239.99 1441.48 -1846.24 1475.68 -1730.54C1487.08 -1691.94 1507.86 -1744.01 1498.75 -1554.16C1493.55 -1445.58 1483.8 -1350.34 1476.11 -1261.58C1463.67 -1118.15 1450.82 -978.672 1438.18 -837.217C1411.22 -535.681 1382.36 -227.726 1362.16 129.333C1336.7 578.886 1374.54 924.868 1369.93 1380.7C1367.45 1626.01 1351.12 1821.79 1333.85 1975.59C1322.68 2075.21 1310.45 2161.49 1297.97 2241.99C1284.93 2326.09 1269.5 2390.15 1258.13 2498.87C1241.93 2653.58 1248.96 2836.73 1252 3036.75C1257.35 3388.25 1258.52 3745.3 1255.5 4099.81C1251.8 4534.34 1243.12 4981.28 1224.85 5376.15C1217.74 5529.88 1208.73 5692.86 1195.35 5795.93C1181.98 5899.01 1168.14 5891.95 1152.82 5860.91C1107.36 5769.19 1061.99 5555.78 1018.87 5353.51C964.893 5100.3 911.979 4817.32 861.448 4495.39C826.568 4273.16 791.573 4033.07 762.392 3731.75C753.905 3644.05 745.83 3550.15 739.301 3445.31C734.818 3373.42 732.414 3280.64 725.919 3226.6C705.596 3057.91 664.794 3108.29 640.96 3118.09C593.394 3137.64 546.577 3230.55 499.071 3253.13C473.144 3265.47 432.538 3296.52 413.498 3065.88C395.592 2849.08 411.81 2507.61 422.512 2298.71C443.544 1887.96 471.8 1522.01 497.126 1140.19C507.538 983.074 518.948 818.689 525.693 639.278C531.689 479.409 521.338 363.705 511.13 247.648Z" stroke="#3A3A3A"/>
<path fill-rule="evenodd" clip-rule="evenodd" d="M518.927 237.226C487.219 -161.098 448.994 -514.687 417.057 -919.493C398.363 -1156.56 366.169 -1555.09 380.626 -1889.31C396.487 -2256.56 451.774 -2266.57 483.732 -2296.16C521.768 -2331.38 566.435 -2379.5 598.987 -2608.81C609.282 -2681.31 618.052 -2777.26 621.769 -2903.65C625.75 -3038.91 621.398 -3157.27 620.832 -3292.67C619.644 -3576.73 635.876 -3804.78 657.357 -3961.39C687.715 -4182.81 725.677 -4287.5 761.534 -4360.49C802.158 -4442.81 843.457 -4483.39 884.838 -4481.66C924.385 -4480.25 963.514 -4489.41 1003.1 -4499.98C1054.87 -4514.07 1107.37 -4491.31 1157.59 -4347.66C1207.07 -4206.06 1252.04 -3940.67 1287.37 -3550.31C1321.84 -3169.39 1345.1 -2703.78 1365.46 -2229.51C1377.02 -1960.32 1396.54 -1558.05 1424.11 -1422.08C1436.37 -1361.57 1448.4 -1365.72 1435.36 -1208.34C1418.95 -1010.16 1396.83 -851.156 1377.82 -681.654C1350.39 -437.051 1322.28 -187.658 1299.26 103.16C1284.56 288.866 1278.01 469.078 1279.02 709.524C1279.81 892.694 1283.35 1073.96 1281.56 1257.84C1277.36 1689.41 1244.82 1985.37 1216.05 2260.97C1197.55 2438.23 1180.65 2573.42 1171.12 2825.56C1159.85 3123.57 1155.13 3447.78 1147.6 3757.19C1139.33 4096.97 1129.77 4450.42 1111.72 4749.69C1095.65 5016.14 1076.1 5135.62 1046.85 5063.83C1001.23 4951.96 956.255 4676.35 915.75 4421.4C874.523 4162 834.004 3870.34 799.84 3513.79C781.396 3321.25 768.807 3095.17 752.427 2888.33C731.823 2628.65 685.212 2727 657.512 2748.98C611.528 2785.48 466.839 3058.54 480.19 2174.11C485.762 1804.95 507.708 1464.26 523.758 1138.49C530.41 1003.3 540.037 841.054 541.541 686.134C543.181 517.407 528.46 357.132 518.927 237.226Z" stroke="#3A3A3A"/>
<path fill-rule="evenodd" clip-rule="evenodd" d="M537.669 288.876C513.438 -72.087 484.44 -413.102 463.648 -802.964C450.161 -1055.45 436.916 -1392.8 454.315 -1659.94C473.953 -1961.41 517.255 -2031.69 549.073 -2070.11C581.854 -2109.65 620.989 -2142.92 647.782 -2371.51C656.306 -2444.32 663.333 -2542.51 664.642 -2660.08C665.903 -2772.86 662.342 -2885.64 663.522 -3000.46C666.166 -3258.3 681.13 -3470.75 700.424 -3624.83C757.498 -4080.67 842.443 -4182.03 911.304 -4193.94C945.772 -4199.86 981.245 -4168.78 1015.93 -4146.5C1060.95 -4117.61 1106.03 -4055.58 1148.96 -3906.07C1240.24 -3588.32 1301.42 -2883.59 1344.15 -2006.67C1357.6 -1730.64 1367.89 -1431.99 1388.96 -1210.17C1399.83 -1095.63 1397.45 -1013.37 1386.35 -908.906C1368.98 -745.659 1347.8 -620.897 1328.53 -484.646C1301.11 -290.878 1273.11 -94.2197 1248.87 137.893C1232.16 297.898 1220.29 452.053 1216.69 691.99C1214.12 863.061 1214.72 1037.37 1213.18 1209.5C1210.24 1536.49 1200.17 1861.01 1182.35 2132.25C1168.18 2347.23 1151.32 2542.62 1133.9 2728.92C1111.25 2971.46 1092.09 3217.88 1074.88 3505.75C1052.08 3886.8 1020.03 4589.7 966.307 4403.68C907.056 4198.43 851.52 3676.89 813.505 3171.57C800.739 3001.91 790.259 2793.83 773.042 2668.72C747.267 2481.72 721.115 2488.27 690.457 2489.05C644.558 2490.11 544.682 2594.22 543.603 1875.82C543.178 1591.19 554.967 1322.07 560.611 1048.3C566.977 741.683 554.218 534.875 537.669 288.876Z" stroke="#3A3A3A"/>
<path fill-rule="evenodd" clip-rule="evenodd" d="M555.716 321.06C531.749 -149.392 478.004 -922.443 518.881 -1445.58C540.473 -1722.05 578.665 -1825.94 610.702 -1887.86C636.484 -1937.94 667.577 -1956.75 687.057 -2169.05C701.376 -2325.14 695.02 -2552.3 700.505 -2747.69C707.314 -2989.92 722.941 -3188.13 742.145 -3337.11C795.808 -3753.47 870.423 -3881.24 934.977 -3908.43C1002.02 -3936.6 1075.89 -3804.82 1138.98 -3551.31C1217.65 -3235.12 1276.58 -2636.4 1317.79 -1878.21C1325.4 -1738.25 1332.31 -1594.63 1339.61 -1452.98C1344.51 -1357.96 1351.79 -1266.04 1355.65 -1166.09C1362.09 -999.431 1354.51 -863.205 1342.35 -754.59C1324.86 -598.219 1303.37 -486.928 1283.43 -369.579C1256.17 -208.982 1228.29 -51.2725 1202.93 137.148C1185.88 263.935 1168.04 400.514 1161.94 620.49C1157.78 770.522 1156.92 929.429 1157.07 1084.81C1157.39 1417.98 1155.72 1687.41 1140.83 1992.54C1116.34 2493.49 1078.67 2943.94 1038.88 3318.74C1007.65 3612.89 958.242 4069.81 912.743 3873.15C871.921 3697.06 848.041 3275.56 821.145 2934.78C808.068 2769.12 793.379 2617.82 776.119 2499.97C754.358 2351.42 733.872 2289.08 708.09 2264.78C664.696 2223.86 599.265 2213.22 585.851 1669.44C580.898 1468.77 583.725 1260.91 581.127 1057.63C577.733 788.836 567.808 558.364 555.716 321.06Z" stroke="#3A3A3A"/>
<path fill-rule="evenodd" clip-rule="evenodd" d="M580.638 338.481C563.571 -176.285 541.15 -825.03 582.371 -1282.54C602.338 -1504.17 630.423 -1628.06 657.604 -1720.65C677.072 -1787.01 707.983 -1806.54 719.918 -2010.54C728.684 -2160.67 729.898 -2367.78 737.828 -2528.62C748.725 -2749.76 765.232 -2931.9 784.599 -3074.49C835.051 -3446.03 900.763 -3589.6 960.69 -3630.71C1090.9 -3719.92 1223.39 -3009.47 1293.07 -1840.6C1313.84 -1492.18 1340.66 -1121.34 1307.09 -765.374C1270.43 -377.044 1215.21 -195.113 1171.46 80.8159C1154.74 186.167 1133.44 312.813 1124.12 503.558C1118.51 618.217 1118.12 762.069 1117.87 888.292C1117.19 1209.77 1114.64 1498.89 1102.26 1798.86C1083.15 2262.43 1052.68 2690.11 1018.15 3040.44C988.033 3345.91 945.086 3704.91 901.35 3484.69C867.816 3315.45 846.548 2956.24 820.493 2691.45C791.497 2396.56 755.637 2197.84 716.257 2100.74C677.949 2006.53 635.932 1943 615.743 1542.75C608.818 1405.46 601.582 1227.68 598.986 1075.72C594.795 825.172 588.659 578.609 580.638 338.481Z" stroke="#3A3A3A"/>
<path fill-rule="evenodd" clip-rule="evenodd" d="M608.426 342.107C600.531 -177.696 599.653 -719.707 636.338 -1129.39C653.459 -1320.52 675.101 -1456.3 696.986 -1579.33C713.088 -1669.85 729.716 -1746.2 741.741 -1894.61C752.883 -2032.01 761.352 -2191.56 772.109 -2332.56C786.299 -2519.42 803.277 -2681.17 822.392 -2811.61C870.306 -3137.96 928.592 -3290.6 984.354 -3343.54C1011.35 -3369.27 1040.63 -3382.67 1067.44 -3312.52C1093.33 -3244.84 1118.94 -3137.82 1142.75 -3013.03C1193.36 -2748.02 1237.22 -2359.91 1269.02 -1869.23C1290.83 -1532.65 1302.62 -1205.39 1274.38 -863.952C1242.55 -479.087 1192.64 -266.739 1151.5 -16.954C1123.28 154.363 1091.66 322.297 1086.39 686.364C1082.19 976.052 1078.78 1251.01 1067.93 1524.83C1051.77 1928.73 1028.01 2294.6 998.053 2600.75C970.661 2879.65 936.008 3116.32 896.827 2967.35C865.784 2849.12 841.699 2584.25 814.577 2394.88C784.351 2183.38 751.142 2066.77 716.172 1973.01C684.744 1888.4 655.152 1758.4 634.84 1482.39C630.683 1425.99 626.316 1364.58 623.111 1301.48C619.021 1220.97 619.339 1141.17 618.536 1050.92C616.444 812.772 611.996 577.369 608.426 342.107Z" stroke="#3A3A3A"/>
<path fill-rule="evenodd" clip-rule="evenodd" d="M639.066 299.62C639.74 -194.116 651.106 -660.736 682.236 -1045.51C695.544 -1210.12 711.436 -1345.7 726.08 -1496.53C737.871 -1618.13 749.014 -1731.11 762.572 -1831.31C794.733 -2068.58 820.871 -2375.61 855.05 -2586.89C900.675 -2869.34 952.937 -3025.47 1004.79 -3087.89C1030.12 -3118.4 1056.27 -3129.06 1081.89 -3094.6C1103.9 -3065.02 1124.97 -2961.14 1144.52 -2854.87C1182.83 -2646.7 1220.03 -2350.82 1244.91 -1976.49C1299.75 -1151.22 1191.62 -551.213 1136.12 -199.836C1110.59 -38.1994 1071.59 149 1061.14 469.166C1053.66 697.886 1049.11 930.489 1039.49 1152.15C1013.63 1747.43 961.146 2447.57 891.204 2354.36C861.276 2314.53 833.998 2152.75 806.059 2044.15C777.29 1932.3 747.597 1869.94 717.696 1801.52C689.75 1737.61 667.477 1646.66 649.427 1402.83C640.799 1286.39 641.562 1146.99 640.793 1004.14C639.538 769.488 638.762 533.495 639.066 299.62Z" stroke="#3A3A3A"/>
<path fill-rule="evenodd" clip-rule="evenodd" d="M666.966 236.381C678.202 -508.869 719.934 -1322.47 781.297 -1755.27C853.477 -2264.39 931.674 -2693.11 1017.91 -2816.35C1057.9 -2873.5 1101.7 -2901.62 1139.42 -2714.74C1168.14 -2572.61 1201.49 -2360.16 1217.29 -2061.38C1255.95 -1330.58 1169.96 -748.806 1120.97 -410.71C1094.59 -228.696 1061.02 -51.3329 1041.14 214.465C1029.6 368.575 1023.71 572.433 1014.4 741.693C986.183 1254.62 939.73 1668.32 881.866 1742.31C855.111 1776.49 828.161 1734.21 801.609 1700.6C774.429 1666.21 746.912 1647.54 719.9 1599.55C698.339 1561.21 672.928 1496.31 664.987 1255.25C654.973 951.471 662.38 540.724 666.966 236.381Z" stroke="#3A3A3A"/>
<path fill-rule="evenodd" clip-rule="evenodd" d="M694.324 116.661C710.712 -584 745.414 -1267.45 803.752 -1685.73C834.688 -1907.53 870.601 -2060.64 905.08 -2211.92C944.163 -2383.36 984.997 -2516.44 1026.7 -2582.45C1078.63 -2664.68 1162.73 -2738.81 1189.86 -2120.66C1216.79 -1507.09 1148.75 -964.056 1108.51 -654.595C1082.71 -456.35 1055.1 -274.397 1030.45 -57.6757C1017.08 59.8182 1006.79 195.578 995.476 333.383C964.215 715.202 919.649 1017.47 874.225 1178.83C830.199 1335.25 775.736 1404.51 729.263 1352.81C709.211 1330.6 694.879 1255.63 688.814 1042.51C680.411 746.233 687.55 406.093 694.324 116.661Z" stroke="#3A3A3A"/>
<path fill-rule="evenodd" clip-rule="evenodd" d="M721.51 -72.0512C737.79 -688.957 772.904 -1252.42 824.124 -1622.67C881.538 -2037.74 955.469 -2268.37 1023.42 -2385.66C1059.54 -2447.95 1137.81 -2616.86 1156.22 -2133.46C1174.63 -1650.06 1121.41 -1173.69 1090.78 -911.448C1053.6 -593.654 1013.52 -286.816 973.481 -1.67987C938.697 246.234 901.58 499.696 863.903 691.145C842.654 799.753 820.518 888.43 797.759 956.125C780.906 1005.85 759.476 1080.01 741.807 1043C697.241 949.523 713.724 222.917 721.51 -72.0512Z" stroke="#3A3A3A"/>
<path fill-rule="evenodd" clip-rule="evenodd" d="M755.067 -256.786C790.787 -1423.43 903.959 -1997.2 1012.92 -2197.2C1038.25 -2243.62 1109.23 -2411 1123.38 -2054.61C1137.1 -1709.08 1093.48 -1299.3 1073.06 -1105.16C1009.78 -503.555 931.598 -57.4962 857.516 384.406C834.392 522.337 792.687 821.658 764.003 683.586C732.86 533.397 747.667 -14.8771 755.067 -256.786Z" stroke="#3A3A3A"/>
<path fill-rule="evenodd" clip-rule="evenodd" d="M791.655 -481.335C822.719 -1340.48 913.071 -1833.23 996.141 -1995.67C1016.49 -2035.42 1068.16 -2159.17 1083.57 -1919.42C1097.83 -1697.64 1063.8 -1376.28 1051.07 -1248.58C1022.72 -964.221 989.129 -729.966 955.942 -504.803C925.256 -296.483 894.239 -82.9477 861.952 93.2366C844.945 185.98 813.05 383.87 793.724 240.668C772.918 86.6124 784.758 -290.563 791.655 -481.335Z" stroke="#3A3A3A"/>
<path fill-rule="evenodd" clip-rule="evenodd" d="M-207.146 961.587C-208.002 411.177 -235.996 -160.856 -222.171 -721.691C-210.818 -1182.3 -153.663 -1220.76 -119.375 -1429.44C-92.1284 -1595.24 -76.6656 -1888.93 -61.9305 -2170.72C-48.6911 -2423.7 -36.7993 -2684.29 -22.8524 -2933.12C-13.824 -3093.99 1.6792 -3409.86 21.2587 -3415.57C40.0027 -3421.06 57.1903 -3174.91 68.0782 -3029.4C82.2744 -2839.73 94.8602 -2637.53 108.645 -2444.83C131.877 -2119.8 159.75 -1879.21 191.666 -1651.51C227.986 -1392.42 264.906 -1142.18 302.425 -900.795C330.05 -722.536 357.862 -545.616 384.415 -349.75C401.071 -226.85 437.831 3.7385 438 230.312C438.08 338.422 428.277 458.153 421.668 544.571C410.483 690.854 397.736 824.601 384.948 955.46C361.13 1199.22 336.302 1431.92 311.744 1667.44C279.868 1973.1 249.421 2273.77 221.399 2620.78C192.427 2979.97 164.749 3351 136.505 3716.95C117.377 3964.87 98.2694 4243.28 70.679 4395.4C36.1218 4585.57 7.7565 4385.05 -27.1914 4382.73C-57.2546 4380.68 -55.0379 3652.72 -58.8582 3450.3C-62.6918 3245.42 -71.1408 3054.7 -74.4153 2849.32C-78.4983 2592.96 -78.5522 2330.68 -79.5561 2071.56C-80.7756 1754.63 -81.2607 1452.91 -113.675 1332.05C-132.123 1263.38 -152.08 1248.94 -171.174 1207.81C-183.544 1181.12 -206.876 1135.48 -207.146 961.587Z" stroke="#3A3A3A"/>
<path fill-rule="evenodd" clip-rule="evenodd" d="M-192.366 863.674C-195.518 402.294 -214.135 -188.239 -196.53 -664.502C-181.489 -1071.5 -134.45 -1124.26 -102.776 -1338.06C-76.628 -1514.4 -64.988 -1802.96 -51.9175 -2086.45C-41.4314 -2313.86 -31.2625 -2543.46 -19.3593 -2763.6C-10.5872 -2925.84 2.80727 -3199.73 21.0466 -3233.3C37.4438 -3263.49 55.0286 -3021.7 64.2326 -2898.68C77.6607 -2719.09 89.1455 -2524.06 101.008 -2333.12C121.852 -1997.72 143.195 -1696.1 173.702 -1449.72C204.344 -1202.27 237.867 -1017.26 271.748 -824.691C298.253 -674.024 324.624 -518.985 349.807 -345.042C368.566 -215.537 395.537 -49.7755 404.12 181.161C410.915 363.851 376.454 667.018 366.292 774.022C345.373 994.025 323.207 1200.56 301 1405.82C273.928 1655.94 245.992 1874.68 222.084 2160C179.323 2670.12 143.58 3305.37 88.5584 3684.5C55.3727 3913.18 18.4419 3971.66 -18.4686 3937.45C-33.0844 3923.9 -36.5932 3708.27 -38.4354 3582.51C-41.4989 3373.58 -41.8835 3161.05 -44.2385 2951.28C-46.445 2754.9 -51.3439 2568.33 -55.2914 2375.77C-59.2861 2180.66 -60.4063 1980.76 -63.3483 1784.32C-65.1702 1662.36 -66.9719 1520.44 -74.941 1422.39C-83.1869 1320.89 -96.7905 1278.36 -108.68 1246.05C-131.009 1185.96 -190.14 1189.27 -192.366 863.674Z" stroke="#3A3A3A"/>
<path fill-rule="evenodd" clip-rule="evenodd" d="M-173.344 670.532C-178.644 247.019 -186.064 -280.469 -164.473 -670.661C-146.826 -989.704 -109.188 -1058.53 -82.3047 -1266.41C-59.9448 -1439.28 -51.4991 -1714.23 -40.4002 -1969.73C-31.2928 -2179.3 -22.1382 -2389.79 -11.1001 -2589.22C-2.72861 -2740.46 8.05978 -2945.53 24.6812 -2998.29C38.8924 -3043.37 54.9467 -2841.41 62.8253 -2740.88C76.2399 -2569.56 87.1768 -2377.6 98.0395 -2188.18C115.809 -1878.22 132.16 -1547.13 157.45 -1295.01C182.024 -1050.36 211.216 -905.946 240.955 -743.571C263.734 -619.166 286.37 -489.971 307.832 -341.615C324.312 -227.777 344.734 -92.8753 353.322 96.5499C360.748 259.911 341.683 453.281 332.157 568.528C316.427 758.728 298.968 933.219 281.753 1108.41C263.173 1297.42 242.596 1471.77 224.617 1665.42C186.811 2072.94 156.606 2524.14 110.009 2836.35C79.8315 3038.59 39.2232 3222.31 3.54999 3189.27C-22.1045 3165.46 -20.4167 2572.18 -22.8809 2382.61C-26.9316 2072.66 -34.7562 1746.99 -47.1851 1461.48C-57.8587 1216.83 -83.2229 1141.38 -106.555 1086.51C-121.171 1052.06 -136.49 1033.46 -150.627 980.206C-166.992 918.496 -171.123 848.052 -173.344 670.532Z" stroke="#3A3A3A"/>
<path fill-rule="evenodd" clip-rule="evenodd" d="M-155.601 472.018C-158.756 113.96 -158.047 -309.45 -137.607 -619.183C-119.695 -890.482 -87.8021 -961.91 -65.1192 -1175.63C-47.4161 -1342.37 -40.4632 -1614.23 -30.9427 -1834.73C-19.3074 -2104.33 -3.00294 -2602.28 26.3491 -2703.74C53.6537 -2798.05 82.2084 -2195.54 92.0938 -2015.88C107.743 -1731.51 120.831 -1419.66 139.811 -1157.05C156.156 -930.965 178.055 -805.984 201.299 -671.677C230.935 -500.137 275.929 -296.733 291.774 37.5867C303.585 286.701 265.179 657.053 252.063 829.653C238.347 1009.95 228.016 1223.67 213.86 1397.61C191.522 1672.09 155.325 1893.09 125.439 2061.73C96.3844 2225.78 58.6538 2407.36 25.6936 2396.55C4.031 2389.48 -0.0907097 2039.9 -4.71243 1869.14C-11.3342 1626.38 -20.1384 1408.85 -39.051 1243.74C-58.3014 1075.66 -80.9911 996.459 -104.843 927.151C-117.087 891.825 -131.053 864.272 -142.006 792.914C-154.108 715.269 -154.385 609.646 -155.601 472.018Z" stroke="#3A3A3A"/>
<path fill-rule="evenodd" clip-rule="evenodd" d="M-133.982 265.635C-133.807 -43.7013 -127.038 -373.566 -106.968 -612.176C-90.2515 -810.924 -64.0861 -877.361 -48.0837 -1080.54C-35.4084 -1241.39 -28.9563 -1467.21 -20.4702 -1654.01C-10.0916 -1882.91 4.58397 -2282.8 30.3925 -2362.24C55.5814 -2439.58 77.8608 -1999.13 87.5188 -1824.84C101.662 -1569.29 113.112 -1298.41 127.383 -1043.56C138.563 -843.616 152.235 -714.749 170.44 -585.883C191.81 -434.519 221.626 -266.845 233.042 -16.4235C241.272 164.889 221.35 454.61 214.117 614.34C209.267 721.623 204.829 830.594 202.391 946.876C200.492 1037.43 200.303 1121.23 194.801 1198.98C180.947 1394.57 150.572 1420.09 129.963 1484.56C102.592 1570.12 73.5504 1667.35 44.9064 1685.91C27.3011 1697.51 18.3167 1528.01 8.26804 1408.77C-3.60577 1267.81 -20.4163 1166.43 -35.0986 1060.07C-54.4752 919.458 -75.5625 832 -97.3772 742.433C-107.217 702.009 -118.774 662.358 -126.398 582.001C-134.359 498.691 -134.042 377.277 -133.982 265.635Z" stroke="#3A3A3A"/>
<path fill-rule="evenodd" clip-rule="evenodd" d="M-111.276 81.9953C-107.797 -177.805 -96.9558 -426.113 -78.6449 -609.772C-64.6084 -750.776 -45.9671 -830.162 -34.7014 -999.578C-24.2044 -1157.5 -16.8894 -1337.07 -8.21939 -1505.92C0.956291 -1684.44 14.5883 -1982.8 35.7511 -2031.38C58.5588 -2083.69 76.1281 -1782.72 85.8566 -1615.91C98.1471 -1405.11 107.485 -1178.3 118.474 -960.238C126.753 -797.706 137.313 -649.059 149.803 -519.247C162.903 -382.402 180.668 -251.339 187.295 -63.1687C193.153 103.498 182.191 305.134 180.256 474.128C178.187 654.684 181.814 844.335 170.339 999.369C146.675 1319.1 87.2859 1259.8 53.3339 1266.64C19.8335 1273.69 -7.10024 1078.05 -34.2093 891.924C-52.1157 769.038 -70.7637 664.977 -89.1218 550.482C-107.837 433.66 -114.336 310.634 -111.276 81.9953Z" stroke="#3A3A3A"/>
<path fill-rule="evenodd" clip-rule="evenodd" d="M-90.1792 -66.7035C-79.8916 -443.079 -47.7607 -643.122 -24.7907 -927.556C-5.9965 -1160.41 8.09579 -1642.63 39.7478 -1706.41C75.6834 -1778.81 97.1963 -1139.88 109.69 -893.333C123.553 -619.907 148.243 -397.496 158.51 -108.053C163.907 43.8666 159.272 185.625 156.399 337.473C153.248 504.21 150.881 674.687 140.006 808.896C118.601 1073.01 76.7965 1071.17 46.6894 1078.44C15.5231 1085.99 -12.0476 905 -36.8795 724.363C-63.2156 533.07 -100.716 319.269 -90.1792 -66.7035Z" stroke="#3A3A3A"/>
<path fill-rule="evenodd" clip-rule="evenodd" d="M-72.9486 -168.764C-61.3564 -436.92 -36.9965 -654.924 -17.23 -860.723C-0.731913 -1032.29 17.0165 -1377.68 42.1714 -1402.3C71.7362 -1431.34 89.6545 -1062.52 101.287 -836.384C112.737 -614.171 129.235 -379.543 135.575 -135.657C142.186 118.401 124.58 460.558 107.79 640.335C89.0633 840.803 58.4249 914.874 32.1353 906.877C4.60893 898.741 -20.6479 733.063 -41.4948 561.213C-63.7822 377.509 -86.4297 142.53 -72.9486 -168.764Z" stroke="#3A3A3A"/>
<path fill-rule="evenodd" clip-rule="evenodd" d="M-56.9603 -219.247C-45.8874 -442.281 -26.6933 -630.954 -8.99567 -799.248C4.66187 -929.176 24.8149 -1150.1 44.519 -1155.51C66.1956 -1161.49 84.5666 -976.046 93.1842 -785.967C101.679 -598.489 110.63 -363.439 111.902 -157.761C114.664 290.134 58.4418 791.856 16.2245 751.03C-23.8027 712.311 -79.0382 225.135 -56.9603 -219.247Z" stroke="#3A3A3A"/>
<path fill-rule="evenodd" clip-rule="evenodd" d="M-42.1741 -243.842C-26.8983 -534.438 10.2067 -948.722 44.5584 -958.561C83.9885 -969.805 93.8868 -508.787 88.7473 -174.689C83.5262 166.295 38.0661 659.851 1.81763 593.158C-33.5606 528.082 -60.2779 100.797 -42.1741 -243.842Z" stroke="#3A3A3A"/>
<path fill-rule="evenodd" clip-rule="evenodd" d="M-26.5621 -290.831C-13.6286 -534.142 13.9704 -838.053 42.7556 -847.252C77.0538 -858.136 76.4068 -468.908 68.6292 -226.65C60.5416 24.8765 24.9224 454.48 -5.10966 386.648C-34.3127 320.431 -38.9564 -57.6315 -26.5621 -290.831Z" stroke="#3A3A3A"/>
<path fill-rule="evenodd" clip-rule="evenodd" d="M-12.9644 -318.833C-4.42738 -492.447 16.9387 -711.875 37.2504 -718.896C62.0772 -727.335 57.2511 -418.618 50.8366 -269.614C43.2121 -92.3124 17.6552 215.767 -3.79199 165.839C-24.908 116.691 -20.0075 -175.786 -12.9644 -318.833Z" stroke="#3A3A3A"/>
</g>
</g>
<defs>
<clipPath id="clip0_4_421">
<rect width="1440" height="3722.97" fill="white" transform="translate(0 0.0267334)"/>
</clipPath>
</defs>
</svg>
