<svg width="34" height="39" viewBox="0 0 34 39" fill="none" xmlns="http://www.w3.org/2000/svg">
<g clip-path="url(#clip0_54_464)">
<path d="M0.786575 26.8248H4.71841V5.78491H19.9935C21.845 5.78491 23.6743 6.28161 25.2286 7.28605C27.1945 8.55723 29.1604 10.8696 29.1604 15.0346C29.1604 23.3663 20.9073 24.2842 20.9073 24.2842V21.0005H16.8333V28.026H20.2446C22.8344 28.026 25.3873 27.3141 27.5471 25.8902C30.3197 24.0635 33.0904 20.719 33.0904 14.6464C33.0904 6.26873 27.0376 3.30141 23.283 2.2657C21.9594 1.90145 20.5898 1.72668 19.2164 1.72668H0.784729V26.8266L0.786575 26.8248Z" fill="#2E5077"/>
<path d="M0.78656 29.8675H4.68886V31.9666C4.68886 32.5552 4.89192 33.1366 5.29987 33.5615C5.64506 33.9221 6.17115 34.2311 6.95936 34.2311C8.85144 34.2311 8.90497 32.6141 8.90497 32.6141V17.2992C8.90497 16.177 9.20402 15.064 9.83163 14.135C10.6494 12.9227 12.176 11.7104 15.015 11.7104C20.6913 11.7104 20.7466 17.5291 20.7466 17.5291H16.6376C16.6376 17.5291 16.5841 15.535 14.9615 15.535C14.2323 15.535 13.7487 15.9434 13.4367 16.3941C13.0916 16.8926 12.9346 17.496 12.9346 18.1013V31.6777C12.9346 33.4861 12.235 35.2521 10.9078 36.4865C10.0015 37.3291 8.73884 38.0042 7.01474 38.0042C5.43462 38.0042 4.20523 37.4321 3.27303 36.6797C1.66522 35.3846 0.788405 33.3886 0.788405 31.3282V29.8675H0.78656Z" fill="white"/>
</g>
<defs>
<clipPath id="clip0_54_464">
<rect width="34" height="37.8702" fill="white" transform="translate(0 0.93512)"/>
</clipPath>
</defs>
</svg>
